<?xml version="1.0" encoding="utf-8"?>
<!-- Generator: Adobe Illustrator 27.0.1, SVG Export Plug-In . SVG Version: 6.00 Build 0)  -->
<svg version="1.1" id="Layer_1" xmlns="http://www.w3.org/2000/svg" xmlns:xlink="http://www.w3.org/1999/xlink" x="0px" y="0px"
	 viewBox="0 0 259 40" style="enable-background:new 0 0 259 40;" xml:space="preserve">
<style type="text/css">
	.st0{fill:#1E1E1E;}
</style>
<path class="st0" d="M27.1,28v0.1C27.1,28.1,27.1,28.1,27.1,28z M245.5,21.2c-0.3-0.2-0.6-0.3-1-0.4c-0.4-0.1-1.1-0.3-2.3-0.6
	c-1.3-0.3-1.6-0.4-1.9-0.5c-0.8-0.3-1.1-0.7-1.1-1.4c0-1.2,1-2,2.6-2c1.6,0,3,0.8,3.7,2.2l1.7-1.3c-0.8-1.7-2.9-2.8-5.2-2.8
	c-1.4,0-2.6,0.4-3.6,1.2c-0.9,0.8-1.4,1.7-1.4,2.9c0,1.2,0.4,2.1,1.4,2.7c0.3,0.2,0.6,0.4,1.1,0.5c0.4,0.1,1.1,0.3,2,0.5
	c0.8,0.2,1.3,0.3,1.6,0.4c0.2,0.1,0.5,0.1,0.6,0.2c0.9,0.3,1.3,0.8,1.3,1.6c0,1.3-1.2,2.1-3,2.1c-1.8,0-3.4-1-4.1-2.5l-1.8,1.3
	c1,2,3.3,3.2,6,3.2c1.5,0,2.7-0.4,3.8-1.2c1-0.8,1.5-1.8,1.5-3.1C247.1,22.8,246.6,21.9,245.5,21.2z M258.8,5.6v28.9
	c0,3.1-2.5,5.6-5.6,5.6h-64.1c-2.2,0-4.1-1.3-5-3.1c-0.9,1.9-2.8,3.1-5,3.1H45.5c-2.2,0-4.1-1.3-5-3.1c-0.9,1.8-2.8,3.1-5,3.1h-30
	C2.5,40,0,37.5,0,34.4V5.6C0,2.5,2.5,0,5.6,0h30c2.2,0,4.1,1.3,5,3.1c0.9-1.8,2.8-3.1,5-3.1h133.6c2.2,0,4.1,1.3,5,3.1
	c0.9-1.9,2.8-3.1,5-3.1h64.1C256.3,0,258.8,2.5,258.8,5.6L258.8,5.6z M40,34.4V5.6c0,0,0,0,0,0c0-2.5-2-4.4-4.4-4.4h-30
	c-2.4,0-4.4,2-4.4,4.4v28.9c0,2.4,2,4.4,4.4,4.4h30C38,38.9,39.9,36.9,40,34.4z M183.6,34.4V5.6c0-2.4-2-4.4-4.4-4.4H45.5
	c-2.4,0-4.4,2-4.4,4.4v28.9c0,0,0,0,0,0c0,2.5,2,4.4,4.4,4.4h133.6C181.6,38.9,183.6,36.9,183.6,34.4L183.6,34.4L183.6,34.4z
	 M257.7,5.6c0-2.4-2-4.4-4.4-4.4h-64.1c-2.4,0-4.4,2-4.4,4.4v28.9c0,2.4,2,4.4,4.4,4.4h64.1c2.4,0,4.4-2,4.4-4.4V5.6z M233.7,16.5
	c0.9,1.3,1.5,3,1.5,4.9s-0.5,3.6-1.5,4.9c-1.1,1.4-2.6,2.2-4.4,2.2s-3.4-0.8-4.2-2.3v2h-2.3V9.5h2.3v7c0.9-1.4,2.4-2.2,4.2-2.2
	C231.1,14.3,232.7,15.1,233.7,16.5z M232.8,21.4c0-3-1.5-5-4-5c-2.3,0-3.8,1.7-3.8,4.5v1c0,2.8,1.6,4.5,3.8,4.5
	C231.3,26.4,232.8,24.4,232.8,21.4z M220.2,26.1h1.2v2h-2.8c-0.7,0-1.2-0.4-1.2-1.5c-0.9,1.1-2.6,1.8-4.4,1.8
	c-1.3,0-2.4-0.4-3.2-1.1c-0.8-0.7-1.2-1.7-1.2-2.8c0-2.3,1.5-3.7,5.1-4.4l3.3-0.7v-0.6c0-1.6-0.9-2.4-2.7-2.4
	c-1.7,0-2.7,0.8-3.1,2.3l-2.2-0.6c0.7-2.3,2.7-3.8,5.4-3.8c3.1,0,4.9,1.6,4.9,4.4v6.6C219.3,26,219.2,26.1,220.2,26.1L220.2,26.1z
	 M217,21.2l-2.6,0.6c-2.6,0.5-3.5,1.3-3.5,2.6c0,1.3,0.9,2.1,2.4,2.1c1,0,1.9-0.3,2.6-0.8c0.7-0.6,1.1-1.3,1.1-2.1V21.2z M198.6,9.5
	h-2.5v18.6h11.8V26h-9.3V9.5z M80,16.4c1.1,1.2,1.6,3,1.6,4.9s-0.6,3.7-1.6,4.9c-1.1,1.3-2.8,2.1-4.7,2.1c-1.9,0-3.5-0.8-4.7-2.1
	c-1.1-1.2-1.6-3-1.6-4.9s0.6-3.7,1.6-4.9c1.1-1.3,2.8-2.1,4.7-2.1C77.2,14.3,78.9,15.1,80,16.4z M79.3,21.4c0-3.1-1.6-5.1-3.9-5.1
	c-2.4,0-3.9,2-3.9,5.1s1.6,5.1,3.9,5.1C77.8,26.4,79.3,24.5,79.3,21.4z M65.9,21.2c-0.3-0.2-0.6-0.3-1-0.4c-0.4-0.1-1.1-0.3-2.3-0.6
	c-1.3-0.3-1.6-0.4-1.9-0.5c-0.8-0.3-1.1-0.7-1.1-1.4c0-1.2,1-2,2.6-2c1.6,0,3,0.8,3.7,2.2l1.7-1.3c-0.8-1.7-2.9-2.8-5.2-2.8
	c-1.5,0-2.6,0.4-3.6,1.2c-0.9,0.8-1.4,1.7-1.4,2.9c0,1.2,0.4,2.1,1.5,2.7c0.3,0.2,0.6,0.4,1.1,0.5c0.4,0.1,1.1,0.3,2,0.5
	c0.8,0.2,1.3,0.3,1.6,0.4c0.2,0.1,0.5,0.1,0.6,0.2c0.9,0.3,1.3,0.8,1.3,1.6c0,1.3-1.2,2.1-3,2.1s-3.4-1-4.1-2.5l-1.8,1.3
	c1,2,3.3,3.2,6,3.2c1.5,0,2.7-0.4,3.8-1.2c1-0.8,1.5-1.8,1.5-3.1C67.6,22.8,67.1,21.9,65.9,21.2z M52.3,28.1h2.5V9.5h-2.5V28.1z
	 M139.1,16.5c0.9,1.3,1.5,3,1.5,4.9s-0.5,3.6-1.5,4.9c-1.1,1.4-2.6,2.2-4.4,2.2c-1.8,0-3.4-0.8-4.2-2.3v6.6h-2.3V14.6h2.3v2
	c0.9-1.4,2.4-2.2,4.2-2.2C136.5,14.3,138.1,15.1,139.1,16.5z M138.2,21.4c0-3-1.5-5-4-5c-2.3,0-3.8,1.7-3.8,4.5v1
	c0,2.8,1.6,4.5,3.8,4.5C136.7,26.4,138.2,24.4,138.2,21.4z M156.1,12.6h2.9v-3h-2.9V12.6z M156.4,28.1h2.3V14.6h-2.3V28.1z
	 M167.4,26.4c-2.5,0-4.1-2-4.1-5s1.6-5,4.1-5c1.7,0,3,1,3.4,2.9l2-1c-0.7-2.4-2.7-3.9-5.4-3.9c-1.9,0-3.6,0.7-4.7,2.1
	c-1.1,1.3-1.7,3-1.7,5s0.6,3.7,1.7,5c1.1,1.3,2.8,2.1,4.7,2.1c2.7,0,4.7-1.6,5.4-4l-2.1-1C170.3,25.3,169.1,26.4,167.4,26.4z
	 M98.2,14.3c-1.8,0-3.4,0.9-4.3,2.3c-0.7-1.5-2-2.3-3.8-2.3c-1.7,0-3.1,0.8-3.9,2.1v-1.8h-2.3v13.5h2.3V20c0-1,0.3-1.8,0.9-2.5
	c0.6-0.6,1.5-1.1,2.3-1.1c1.7,0,2.7,1.2,2.7,3.3v8.3h2.3V20c0-1,0.3-1.8,0.9-2.5c0.6-0.6,1.5-1.1,2.3-1.1c1.7,0,2.7,1.2,2.7,3.3v8.3
	h2.3v-8.9C102.6,16.3,100.9,14.3,98.2,14.3z M115.6,16.4c1.1,1.2,1.6,3,1.6,4.9s-0.6,3.7-1.6,4.9c-1.1,1.3-2.8,2.1-4.7,2.1
	s-3.5-0.8-4.7-2.1c-1.1-1.2-1.6-3-1.6-4.9s0.6-3.7,1.6-4.9c1.1-1.3,2.8-2.1,4.7-2.1S114.5,15.1,115.6,16.4z M114.9,21.4
	c0-3.1-1.6-5.1-3.9-5.1c-2.4,0-3.9,2-3.9,5.1s1.6,5.1,3.9,5.1C113.4,26.4,114.9,24.5,114.9,21.4z M121.8,16.3v-1.7h-2.3v13.5h2.3
	v-7.4c0-1.2-0.1-2.5,0.6-3.2c0.5-0.5,0.9-0.6,1.9-0.6c0.4,0,2.1,0,2.1,0v-2.3h-2.2C123.7,14.6,122.4,14.8,121.8,16.3L121.8,16.3z
	 M149.1,14.3c-1.7,0-3.1,0.8-4,2.1V9.5h-2.3v18.6h2.3v-8.1c0-1,0.3-1.9,1-2.5c0.7-0.7,1.5-1,2.4-1c1.8,0,2.8,1.2,2.8,3.3v8.3h2.3
	v-8.9C153.6,16.2,151.9,14.3,149.1,14.3z"/>
</svg>
